<svg width="44" height="20" viewBox="0 0 44 20" fill="none" xmlns="http://www.w3.org/2000/svg"><path d="M8.242.592H11.57l2.106 6.11L15.808.592H19.11L15.938 8.99 18.278 14.866 23.504.539999H27.404L20.02 19H16.926L13.676 11.252 10.452 19H7.358L0 .539999H3.848L9.1 14.866 11.388 8.99 8.242.592z" fill="#2196f3"/><path d="M41.0731 5.376C40.9171 5.20267 40.5878 4.97733 40.0851 4.7 39.5824 4.40533 38.9758 4.14533 38.2651 3.92 37.5718 3.67733 36.8524 3.556 36.1071 3.556 34.1484 3.556 33.1691 4.24933 33.1691 5.636 33.1691 6.13867 33.3251 6.53733 33.6371 6.832 33.9491 7.12667 34.4171 7.378 35.0411 7.586 35.6651 7.794 36.4451 8.01933 37.3811 8.262 38.5944 8.574 39.6431 8.938 40.5271 9.354 41.4284 9.77 42.1131 10.3247 42.5811 11.018 43.0664 11.694 43.3091 12.5953 43.3091 13.722 43.3091 15.0393 42.9884 16.1053 42.3471 16.92 41.7231 17.7173 40.8911 18.298 39.8511 18.662 38.8111 19.026 37.6844 19.208 36.4711 19.208 35.0844 19.208 33.7064 19 32.3371 18.584 30.9851 18.1507 29.7804 17.5613 28.7231 16.816L30.3091 13.722C30.4651 13.878 30.7424 14.086 31.1411 14.346 31.5398 14.5887 32.0251 14.84 32.5971 15.1 33.1691 15.3427 33.7931 15.5507 34.4691 15.724 35.1451 15.8973 35.8298 15.984 36.5231 15.984 38.4991 15.984 39.4871 15.3513 39.4871 14.086 39.4871 13.5487 39.2878 13.1153 38.8891 12.786 38.4904 12.4567 37.9271 12.1793 37.1991 11.954 36.4884 11.7287 35.6564 11.4773 34.7031 11.2 33.5244 10.8707 32.5451 10.5067 31.7651 10.108 31.0024 9.692 30.4304 9.18067 30.0491 8.574 29.6678 7.95 29.4771 7.16133 29.4771 6.208 29.4771 4.94267 29.7718 3.88533 30.3611 3.036 30.9678 2.16933 31.7824 1.51933 32.8051 1.086 33.8278.635333 34.9631.409999 36.2111.409999 37.4938.409999 38.6898.617999 39.7991 1.034 40.9084 1.45 41.8618 1.92667 42.6591 2.464L41.0731 5.376z" fill="#000"/></svg>